<svg width="128" height="24" viewBox="0 0 128 24" fill="none" xmlns="http://www.w3.org/2000/svg">
  <path
    d="M13.2494 0.818258C13.1448 0.57531 12.9712 0.368339 12.7503 0.222918C12.5293 0.0774978 12.2706 0 12.0061 0C11.7415 0 11.4828 0.0774978 11.2618 0.222918C11.0409 0.368339 10.8674 0.57531 10.7627 0.818258L0.196765 21.5565C-0.360096 22.6415 0.33118 24 1.4401 24C1.70199 23.99 1.95617 23.9087 2.17527 23.7649C2.39436 23.6211 2.57006 23.4202 2.68344 23.1839L13.2446 2.44564C13.3709 2.19315 13.4371 1.91484 13.438 1.63251C13.4388 1.35018 13.3743 1.07148 13.2494 0.818258Z"
    fill="#180E0F" />
  <path
    d="M23.8059 21.5564L21.1992 16.4294C21.0937 16.1868 20.9195 15.9803 20.6982 15.8352C20.4769 15.6902 20.2181 15.6129 19.9535 15.6129C19.6889 15.6129 19.43 15.6902 19.2087 15.8352C18.9874 15.9803 18.8133 16.1868 18.7077 16.4294L16.1011 21.5564C15.5442 22.6413 16.2355 23.9999 17.3444 23.9999H22.5626C23.6715 23.9999 24.3628 22.6413 23.8059 21.5564Z"
    fill="#180E0F" />
  <path
    d="M15.9376 6.09393L15.712 5.66189C15.6073 5.41894 15.4338 5.21197 15.2128 5.06655C14.9919 4.92113 14.7331 4.84363 14.4686 4.84363C14.2041 4.84363 13.9454 4.92113 13.7244 5.06655C13.5034 5.21197 13.3299 5.41894 13.2253 5.66189L5.1268 21.5564C4.57474 22.6413 5.28041 23.9999 6.37013 23.9999H6.81658C7.07925 23.9931 7.3348 23.9131 7.55447 23.7689C7.77413 23.6247 7.94918 23.4221 8.05992 23.1838L15.9376 7.72611C16.0632 7.47242 16.1286 7.19313 16.1286 6.91002C16.1286 6.62691 16.0632 6.34763 15.9376 6.09393Z"
    fill="#180E0F" />
  <path
    d="M18.7225 11.5857L18.3912 10.9376C18.285 10.6964 18.1109 10.4913 17.8901 10.3473C17.6694 10.2033 17.4115 10.1266 17.1479 10.1266C16.8843 10.1266 16.6264 10.2033 16.4057 10.3473C16.1849 10.4913 16.0108 10.6964 15.9046 10.9376L10.5088 21.5564C9.95192 22.6413 10.6432 23.9999 11.7521 23.9999H12.4098C12.6725 23.993 12.928 23.9131 13.1477 23.7689C13.3673 23.6247 13.5424 23.422 13.6531 23.1838L18.7225 13.2179C18.8503 12.9648 18.9169 12.6853 18.9169 12.4018C18.9169 12.1183 18.8503 11.8387 18.7225 11.5857Z"
    fill="#180E0F" />
  <path
    d="M37.4371 19V4.45455H46.8973V6.66335H40.072V10.6122H46.4073V12.821H40.072V16.7912H46.9541V19H37.4371ZM54.2304 19.2131C53.1414 19.2131 52.2063 18.974 51.425 18.4957C50.6485 18.0175 50.0496 17.357 49.6282 16.5142C49.2115 15.6667 49.0032 14.6913 49.0032 13.5881C49.0032 12.4801 49.2162 11.5024 49.6424 10.6548C50.0685 9.80256 50.6698 9.13968 51.4463 8.66619C52.2276 8.18797 53.1509 7.94886 54.2162 7.94886C55.1016 7.94886 55.8853 8.11222 56.5671 8.43892C57.2536 8.76089 57.8005 9.2178 58.2077 9.80966C58.6149 10.3968 58.8469 11.0833 58.9037 11.8693H56.4463C56.3469 11.3437 56.1102 10.9058 55.7361 10.5554C55.3668 10.2003 54.872 10.0227 54.2517 10.0227C53.7262 10.0227 53.2645 10.1648 52.8668 10.4489C52.4691 10.7282 52.1589 11.1307 51.9364 11.6562C51.7186 12.1818 51.6097 12.8116 51.6097 13.5455C51.6097 14.2888 51.7186 14.928 51.9364 15.4631C52.1542 15.9934 52.4596 16.4029 52.8526 16.6918C53.2503 16.9759 53.7167 17.1179 54.2517 17.1179C54.6305 17.1179 54.9691 17.0469 55.2674 16.9048C55.5704 16.758 55.8237 16.5473 56.0273 16.2727C56.2309 15.9981 56.3706 15.6643 56.4463 15.2713H58.9037C58.8422 16.0431 58.6149 16.7273 58.2219 17.3239C57.8289 17.9157 57.2939 18.3797 56.6168 18.7159C55.9397 19.0473 55.1443 19.2131 54.2304 19.2131ZM65.7734 19.2131C64.7081 19.2131 63.7848 18.9787 63.0035 18.5099C62.2223 18.0412 61.6162 17.3854 61.1853 16.5426C60.7592 15.6998 60.5461 14.715 60.5461 13.5881C60.5461 12.4612 60.7592 11.474 61.1853 10.6264C61.6162 9.77888 62.2223 9.12074 63.0035 8.65199C63.7848 8.18324 64.7081 7.94886 65.7734 7.94886C66.8387 7.94886 67.762 8.18324 68.5433 8.65199C69.3245 9.12074 69.9282 9.77888 70.3544 10.6264C70.7852 11.474 71.0007 12.4612 71.0007 13.5881C71.0007 14.715 70.7852 15.6998 70.3544 16.5426C69.9282 17.3854 69.3245 18.0412 68.5433 18.5099C67.762 18.9787 66.8387 19.2131 65.7734 19.2131ZM65.7876 17.1534C66.3652 17.1534 66.8482 16.9948 67.2365 16.6776C67.6247 16.3556 67.9135 15.9247 68.1029 15.3849C68.2971 14.8452 68.3941 14.2438 68.3941 13.581C68.3941 12.9134 68.2971 12.3097 68.1029 11.7699C67.9135 11.2254 67.6247 10.7921 67.2365 10.4702C66.8482 10.1482 66.3652 9.98722 65.7876 9.98722C65.1957 9.98722 64.7033 10.1482 64.3103 10.4702C63.9221 10.7921 63.6309 11.2254 63.4367 11.7699C63.2474 12.3097 63.1527 12.9134 63.1527 13.581C63.1527 14.2438 63.2474 14.8452 63.4367 15.3849C63.6309 15.9247 63.9221 16.3556 64.3103 16.6776C64.7033 16.9948 65.1957 17.1534 65.7876 17.1534ZM75.3419 19L71.2368 4.45455H74.0706L76.6914 15.1435H76.8263L79.6246 4.45455H82.2027L85.0081 15.1506H85.136L87.7567 4.45455H90.5905L86.4854 19H83.886L80.974 8.79403H80.8604L77.9414 19H75.3419ZM95.9492 19.2131C94.8838 19.2131 93.9605 18.9787 93.1793 18.5099C92.398 18.0412 91.792 17.3854 91.3611 16.5426C90.935 15.6998 90.7219 14.715 90.7219 13.5881C90.7219 12.4612 90.935 11.474 91.3611 10.6264C91.792 9.77888 92.398 9.12074 93.1793 8.65199C93.9605 8.18324 94.8838 7.94886 95.9492 7.94886C97.0145 7.94886 97.9378 8.18324 98.7191 8.65199C99.5003 9.12074 100.104 9.77888 100.53 10.6264C100.961 11.474 101.176 12.4612 101.176 13.5881C101.176 14.715 100.961 15.6998 100.53 16.5426C100.104 17.3854 99.5003 18.0412 98.7191 18.5099C97.9378 18.9787 97.0145 19.2131 95.9492 19.2131ZM95.9634 17.1534C96.541 17.1534 97.024 16.9948 97.4122 16.6776C97.8005 16.3556 98.0893 15.9247 98.2787 15.3849C98.4728 14.8452 98.5699 14.2438 98.5699 13.581C98.5699 12.9134 98.4728 12.3097 98.2787 11.7699C98.0893 11.2254 97.8005 10.7921 97.4122 10.4702C97.024 10.1482 96.541 9.98722 95.9634 9.98722C95.3715 9.98722 94.8791 10.1482 94.4861 10.4702C94.0978 10.7921 93.8067 11.2254 93.6125 11.7699C93.4231 12.3097 93.3284 12.9134 93.3284 13.581C93.3284 14.2438 93.4231 14.8452 93.6125 15.3849C93.8067 15.9247 94.0978 16.3556 94.4861 16.6776C94.8791 16.9948 95.3715 17.1534 95.9634 17.1534ZM103.359 19V8.09091H105.852V9.90909H105.965C106.164 9.27936 106.505 8.79403 106.988 8.45312C107.476 8.10748 108.032 7.93466 108.657 7.93466C108.799 7.93466 108.958 7.94176 109.133 7.95597C109.313 7.96544 109.462 7.98201 109.58 8.00568V10.3707C109.471 10.3329 109.298 10.2997 109.062 10.2713C108.83 10.2382 108.605 10.2216 108.387 10.2216C107.918 10.2216 107.497 10.3234 107.123 10.527C106.754 10.7259 106.462 11.0028 106.249 11.358C106.036 11.7131 105.93 12.1226 105.93 12.5866V19H103.359ZM113.859 4.45455V19H111.288V4.45455H113.859ZM120.551 19.1918C119.694 19.1918 118.927 18.9716 118.25 18.5312C117.573 18.0909 117.038 17.4517 116.645 16.6136C116.252 15.7756 116.056 14.7576 116.056 13.5597C116.056 12.3475 116.255 11.3248 116.652 10.4915C117.055 9.65341 117.597 9.02131 118.279 8.59517C118.961 8.1643 119.72 7.94886 120.559 7.94886C121.198 7.94886 121.723 8.05777 122.135 8.27557C122.547 8.48864 122.874 8.74669 123.115 9.04972C123.357 9.34801 123.544 9.62973 123.676 9.89489H123.783V4.45455H126.361V19H123.833V17.2812H123.676C123.544 17.5464 123.352 17.8281 123.101 18.1264C122.85 18.42 122.519 18.6709 122.107 18.8793C121.695 19.0876 121.176 19.1918 120.551 19.1918ZM121.269 17.0824C121.813 17.0824 122.277 16.9356 122.661 16.642C123.044 16.3437 123.336 15.9295 123.534 15.3991C123.733 14.8688 123.833 14.2509 123.833 13.5455C123.833 12.84 123.733 12.2268 123.534 11.706C123.34 11.1851 123.051 10.7803 122.668 10.4915C122.289 10.2027 121.823 10.0582 121.269 10.0582C120.696 10.0582 120.218 10.2074 119.834 10.5057C119.451 10.804 119.162 11.2159 118.968 11.7415C118.774 12.267 118.676 12.8684 118.676 13.5455C118.676 14.2273 118.774 14.8357 118.968 15.3707C119.167 15.901 119.458 16.3201 119.841 16.6278C120.229 16.9309 120.705 17.0824 121.269 17.0824Z"
    fill="#180E0F" />
</svg>